{"scene":0,"asset":{"generator":"ImageToStl.com","version":"2.0"},"scenes":[{"name":"Scene","nodes":[0]}],"nodes":[{"name":"Node0","children":[1]},{"name":"Node1","mesh":0}],"materials":[{"name":"concrete_cat_statue","pbrMetallicRoughness":{"baseColorFactor":[0.8,0.8,0.8,1.0],"metallicFactor":0.5,"roughnessFactor":0.75},"emissiveFactor":[0.0,0.0,0.0],"doubleSided":true}],"meshes":[{"name":"Mesh0","primitives":[{"indices":3,"material":0,"attributes":{"POSITION":0,"NORMAL":1,"TEXCOORD_0":2}}]}],"accessors":[{"bufferView":0,"componentType":5126,"count":6863,"type":"VEC3","min":[-0.07814982,-0.10024762,1.12769676E-07],"max":[0.074822016,0.1497524,0.28300968]},{"bufferView":1,"componentType":5126,"count":6863,"type":"VEC3"},{"bufferView":2,"componentType":5126,"count":6863,"type":"VEC2"},{"bufferView":3,"componentType":5123,"count":107550,"type":"SCALAR"}],"bufferViews":[{"target":34962,"buffer":0,"byteLength":82356,"byteOffset":0},{"target":34962,"buffer":0,"byteLength":82356,"byteOffset":82356},{"target":34962,"buffer":0,"byteLength":54904,"byteOffset":164712},{"target":34963,"buffer":0,"byteLength":215100,"byteOffset":219616}],"buffers":[{"byteLength":434716,"uri":"data:application/octet-stream;base64,"}]}